<svg version="1.0" viewBox="0 0 512 512">
  <path d="M82 50.7v27.8l81.8-.1 81.7-.1 55.5 55.4 55.5 55.3-.1 150.7c0 83 .2 151.4.4 152 .3 1 10.1 1.3 44.3 1.3H445V23H82v27.7zm274 28.2c.6.1.7 48.1.1 48.1S308 79.6 308 79c0-.4 46.3-.5 48-.1z"/>
  <path d="m118.7 156.3.1 59.2-4.5 8.5c-8.4 15.7-15.9 30.4-19.2 38-1.8 4.1-3.7 8.4-4.2 9.5-2 4.6-7 20.7-8.4 27.4-5.1 24.5 2.9 51.3 19.3 64.7 26.1 21.3 59.5 6.2 69.3-31.3 2.5-9.6 2.7-23.9.6-33.9-4-18-14.5-42.8-31.5-74l-2.7-5v-60c.1-32.9-.1-60.5-.3-61.2-.3-.8-3.1-1.2-9.6-1.2h-9.1l.2 59.3zm16.1 98.3c22.3 44.6 25.2 68.6 10.8 89.2-13.5 19.3-36.5 11.3-44.2-15.3-3.5-12.4-1.3-29 6.7-49.4 4.8-12.2 18-38.2 19.2-37.8.6.2 4 6.1 7.5 13.3z"/>
</svg>